<?xml version="1.0" standalone="no"?>
<!DOCTYPE svg PUBLIC "-//W3C//DTD SVG 20010904//EN"
 "http://www.w3.org/TR/2001/REC-SVG-20010904/DTD/svg10.dtd">
<svg version="1.0" xmlns="http://www.w3.org/2000/svg"
 width="340.000000pt" height="340.000000pt" viewBox="0 0 340.000000 340.000000"
 preserveAspectRatio="xMidYMid meet">
<metadata>
Created by potrace 1.11, written by Peter Selinger 2001-2013
</metadata>
<g transform="translate(0.000000,340.000000) scale(0.100000,-0.100000)"
fill="#000000" stroke="none">
<path d="M0 1700 l0 -1700 1700 0 1700 0 0 1700 0 1700 -1700 0 -1700 0 0
-1700z m1845 1650 c77 -6 154 -16 170 -22 27 -9 66 -18 162 -34 18 -4 38 -12
44 -20 6 -8 22 -14 35 -14 14 0 32 -4 42 -9 9 -5 24 -12 32 -15 8 -3 22 -10
30 -15 8 -5 31 -17 50 -25 38 -18 54 -26 85 -45 11 -6 28 -14 38 -17 9 -4 17
-9 17 -13 0 -4 23 -20 50 -36 28 -16 50 -32 50 -35 0 -4 18 -15 40 -26 22 -10
40 -22 40 -26 0 -9 213 -218 222 -218 5 0 8 -5 8 -11 0 -7 11 -22 25 -35 14
-13 25 -27 25 -32 0 -5 10 -20 23 -34 13 -14 31 -41 41 -62 9 -20 20 -36 24
-36 4 0 12 -12 18 -27 7 -16 14 -35 18 -43 3 -8 15 -28 26 -45 11 -16 23 -38
26 -47 4 -10 10 -18 15 -18 5 0 9 -10 9 -23 0 -13 7 -32 15 -43 8 -10 15 -29
15 -41 0 -12 5 -25 10 -28 6 -3 10 -15 10 -27 0 -11 6 -34 14 -51 8 -18 17
-50 20 -72 2 -22 10 -65 16 -95 27 -137 39 -441 20 -519 -7 -25 -16 -73 -20
-106 -18 -126 -27 -166 -38 -177 -7 -7 -12 -22 -12 -34 0 -13 -4 -26 -10 -29
-5 -3 -10 -19 -10 -34 0 -16 -7 -34 -15 -41 -8 -7 -15 -21 -15 -32 0 -11 -10
-34 -22 -51 -25 -35 -78 -135 -78 -148 0 -4 -11 -20 -25 -35 -14 -15 -25 -31
-25 -35 0 -4 -11 -20 -25 -35 -14 -15 -25 -32 -25 -38 -1 -15 -57 -76 -70 -76
-5 0 -10 -5 -10 -10 0 -9 -207 -220 -216 -220 -9 0 -94 -65 -94 -72 0 -4 -5
-8 -12 -8 -6 0 -25 -10 -42 -23 -17 -13 -60 -38 -96 -56 -36 -18 -83 -41 -105
-53 -22 -11 -53 -26 -68 -34 -16 -8 -40 -14 -53 -14 -13 0 -24 -4 -24 -10 0
-5 -12 -10 -26 -10 -14 0 -40 -6 -57 -14 -18 -8 -50 -17 -72 -21 -108 -16
-204 -28 -245 -30 -25 -1 -53 -5 -62 -9 -15 -7 -75 -5 -198 7 -25 3 -82 8
-128 12 -45 4 -85 12 -88 16 -3 5 -22 9 -42 9 -20 1 -48 7 -62 15 -14 8 -39
14 -57 15 -17 0 -35 5 -38 10 -3 6 -15 10 -25 10 -10 0 -31 6 -47 14 -27 14
-42 21 -173 88 -36 18 -69 38 -75 44 -5 6 -25 18 -42 25 -18 8 -33 17 -33 21
0 3 -16 16 -36 28 -52 33 -274 241 -274 258 0 2 -16 19 -35 38 -19 18 -35 35
-35 38 0 4 -21 37 -48 74 -26 37 -56 85 -67 107 -11 22 -29 54 -40 70 -12 17
-29 48 -40 70 -10 22 -22 48 -26 57 -5 10 -9 28 -9 41 0 13 -7 32 -15 43 -8
10 -15 29 -15 41 0 12 -4 25 -10 28 -5 3 -10 22 -10 41 0 20 -5 45 -12 57 -47
84 -48 658 -2 749 8 15 14 45 14 67 0 22 5 43 10 46 6 3 10 18 10 33 0 15 7
36 15 46 8 11 15 30 15 42 0 13 5 26 10 29 6 3 10 17 10 29 0 13 7 29 15 36 8
7 15 21 15 31 0 11 5 19 10 19 6 0 10 9 10 20 0 11 7 23 15 26 8 4 15 10 15
15 0 12 77 137 100 162 11 11 22 29 26 39 3 10 10 18 15 18 5 0 9 5 9 11 0 14
289 299 304 299 6 0 28 15 49 34 21 18 57 43 80 55 23 12 56 31 72 41 29 18
74 41 105 54 8 3 22 10 30 14 42 24 61 32 78 32 10 0 27 7 38 15 10 8 33 15
51 15 17 0 35 5 38 10 3 6 23 10 43 10 20 1 48 7 62 15 14 8 54 15 90 16 36 0
90 4 120 9 84 11 143 11 295 0z"/>
<path d="M477 2482 c-30 -31 -36 -76 -12 -86 8 -3 15 -12 15 -19 0 -14 11 -36
60 -122 16 -27 39 -71 51 -97 13 -27 26 -48 31 -48 4 0 8 -8 9 -17 0 -10 9
-31 20 -48 11 -16 22 -38 25 -47 4 -10 10 -18 15 -18 5 0 18 -19 29 -42 12
-24 39 -74 61 -113 22 -38 44 -82 50 -97 6 -16 15 -28 20 -28 5 0 9 -8 10 -17
0 -10 9 -31 20 -48 11 -16 22 -38 25 -47 4 -10 10 -18 15 -18 5 0 19 -22 31
-50 12 -27 25 -50 30 -50 4 0 8 -8 9 -17 0 -10 9 -31 20 -48 10 -16 22 -37 26
-45 3 -8 9 -17 12 -20 10 -9 30 -44 46 -80 8 -19 19 -42 25 -50 6 -8 13 -23
16 -32 4 -10 10 -18 15 -18 5 0 18 -19 29 -42 11 -24 25 -50 30 -58 6 -8 17
-31 26 -50 27 -61 39 -80 46 -80 5 0 8 -9 8 -19 0 -10 7 -21 15 -25 8 -3 15
-13 16 -23 0 -10 9 -31 20 -48 10 -16 22 -37 26 -45 4 -8 13 -21 20 -28 7 -7
13 -20 13 -28 0 -8 3 -14 8 -14 7 0 19 -19 46 -80 9 -19 20 -42 26 -50 6 -8
13 -23 16 -33 4 -9 10 -17 15 -17 5 0 9 -9 9 -20 0 -11 7 -23 15 -26 8 -4 15
-12 15 -20 0 -48 81 -134 125 -134 18 0 71 57 90 96 9 19 20 34 25 34 4 0 23
29 40 65 17 36 36 65 41 65 5 0 9 7 9 16 0 8 11 32 25 52 14 20 25 42 25 49 0
7 5 13 10 13 6 0 10 9 10 19 0 10 7 21 15 25 8 3 15 15 15 26 0 11 5 20 10 20
6 0 10 7 10 15 0 9 7 18 15 21 8 4 15 14 15 24 0 10 7 23 15 30 8 7 15 17 15
23 0 5 11 24 24 41 12 17 29 48 37 70 8 21 20 41 26 43 7 3 13 14 13 24 0 10
3 19 8 19 8 0 13 8 50 84 12 25 27 46 32 46 6 0 10 7 10 16 0 8 11 30 25 48
14 18 25 40 25 48 0 9 7 18 15 22 8 3 15 15 15 26 0 11 4 20 9 20 10 0 61 96
61 116 0 8 4 14 10 14 5 0 16 16 25 35 9 19 23 39 31 46 8 6 14 17 14 24 0 7
7 18 15 25 8 7 15 21 15 31 0 11 3 19 8 19 8 0 12 8 49 83 13 25 27 49 33 52
5 3 10 15 10 26 0 10 4 19 9 19 5 0 12 8 15 18 10 27 54 104 63 111 10 7 26
34 53 86 12 22 34 63 50 90 16 28 37 66 46 85 10 19 24 41 31 48 7 7 13 20 13
28 0 8 5 14 10 14 17 0 10 74 -9 98 l-19 22 -1189 0 -1189 0 -27 -28z m2073
-132 c-13 -11 -29 -20 -37 -20 -7 0 -21 -4 -31 -9 -9 -5 -24 -12 -32 -15 -8
-4 -28 -14 -45 -24 -16 -10 -42 -22 -58 -26 -15 -3 -27 -11 -27 -16 0 -6 -7
-10 -15 -10 -8 0 -23 -4 -33 -9 -9 -5 -24 -12 -32 -15 -8 -3 -22 -10 -30 -15
-14 -8 -39 -19 -80 -35 -8 -3 -22 -10 -30 -15 -8 -5 -22 -12 -30 -15 -8 -3
-22 -10 -30 -15 -16 -9 -155 -75 -180 -85 -8 -3 -22 -10 -30 -15 -8 -5 -26
-13 -40 -19 -75 -30 -210 -94 -255 -121 -16 -10 -42 -21 -57 -25 -16 -3 -28
-11 -28 -16 0 -6 -7 -10 -15 -10 -8 0 -23 -4 -33 -9 -9 -5 -24 -12 -32 -15 -8
-3 -22 -10 -30 -15 -14 -8 -39 -19 -80 -35 -8 -3 -22 -10 -30 -15 -8 -5 -22
-12 -30 -15 -8 -3 -22 -10 -30 -15 -8 -5 -28 -14 -45 -21 -16 -7 -38 -17 -48
-22 -22 -11 -47 5 -48 31 0 9 -9 30 -20 46 -11 17 -22 38 -25 48 -4 9 -10 17
-15 17 -5 0 -9 9 -9 20 0 11 -4 20 -9 20 -10 0 -18 13 -60 95 -12 22 -34 63
-51 90 -16 28 -33 57 -36 65 -6 16 -32 68 -49 101 -5 10 -13 19 -17 19 -5 0
-8 9 -8 20 0 11 -7 23 -15 26 -8 4 -15 14 -15 24 0 10 -7 20 -15 24 -8 3 -15
14 -15 24 0 10 -5 23 -12 30 -9 9 202 12 952 12 l963 0 -23 -20z m88 -151
c-19 -30 -39 -65 -46 -79 -6 -14 -23 -43 -37 -65 -14 -22 -28 -48 -31 -57 -4
-10 -10 -18 -14 -18 -4 0 -10 -8 -14 -17 -6 -21 -25 -51 -43 -71 -7 -7 -13
-18 -13 -24 0 -5 -10 -24 -22 -41 -22 -31 -46 -73 -84 -147 -10 -19 -24 -41
-31 -48 -7 -7 -13 -20 -13 -28 0 -8 -4 -14 -10 -14 -5 0 -10 -5 -10 -11 0 -6
-13 -28 -30 -49 -16 -21 -30 -45 -30 -54 0 -9 -3 -16 -8 -16 -8 0 -15 -12 -47
-79 -11 -22 -23 -41 -27 -41 -4 0 -16 -20 -27 -43 -26 -57 -44 -72 -61 -52 -7
8 -16 15 -21 15 -4 0 -20 11 -35 25 -15 14 -33 25 -40 25 -8 0 -14 4 -14 9 0
7 -216 158 -243 170 -5 1 -20 14 -34 27 -14 13 -31 24 -37 24 -6 0 -23 11 -38
25 -15 14 -30 25 -33 25 -3 0 -28 17 -57 38 -46 32 -50 37 -30 40 13 2 26 10
29 18 3 8 14 14 24 14 11 0 22 7 25 15 4 8 14 15 24 15 11 0 22 5 25 10 3 6
17 10 29 10 13 0 29 7 36 15 7 8 21 15 31 15 11 0 19 5 19 10 0 6 8 10 19 10
10 0 24 7 31 15 7 8 19 15 26 15 15 0 20 2 99 43 53 27 147 73 205 101 19 9
42 21 50 26 8 5 34 17 58 26 23 10 42 21 42 26 0 4 8 8 18 8 22 0 79 27 87 41
4 5 14 9 25 9 10 0 20 7 24 15 3 8 12 15 21 15 8 0 23 4 33 9 9 5 58 28 107
51 50 23 97 46 105 50 25 13 23 5 -12 -51z m-1300 -649 c23 -16 44 -30 47 -30
3 0 18 -11 33 -25 15 -14 32 -25 39 -25 7 0 13 -4 13 -9 0 -7 218 -159 245
-170 5 -2 18 -12 29 -22 10 -10 51 -40 90 -66 39 -26 80 -55 90 -65 11 -10 28
-20 38 -24 10 -3 18 -9 18 -13 0 -13 -31 -70 -41 -76 -5 -4 -9 -15 -9 -26 0
-10 -4 -19 -9 -19 -5 0 -11 -8 -15 -17 -3 -10 -19 -40 -36 -68 -16 -27 -38
-69 -50 -92 -11 -24 -25 -43 -30 -43 -6 0 -10 -9 -10 -20 0 -11 -4 -20 -9 -20
-9 0 -17 -12 -70 -116 -26 -49 -51 -61 -51 -24 0 9 -7 23 -15 30 -8 7 -15 19
-15 26 0 8 -4 14 -9 14 -5 0 -13 10 -17 23 -4 12 -9 24 -13 27 -9 8 -27 39
-62 110 -18 36 -36 66 -41 68 -4 2 -8 12 -8 23 0 11 -7 22 -15 25 -8 4 -15 12
-15 19 0 13 -20 53 -51 100 -10 17 -22 38 -25 48 -4 9 -10 17 -15 17 -5 0 -9
9 -9 20 0 11 -7 23 -15 26 -8 4 -15 12 -15 19 0 12 -11 34 -60 120 -16 28 -38
69 -49 92 -12 23 -25 45 -31 48 -5 3 -10 14 -10 25 0 10 -7 20 -15 24 -28 10
-15 31 38 56 100 47 103 48 155 10z"/>
</g>
</svg>
